# xmcd
#
# Track frame offsets:
#	150
#	17084
#	31751
#	50535
#	67945
#	80906
#	93549
#	111015
#	124016
#	141678
#	156681
#	172015
#	191366
#	202331
#	219997
#	226266
#	227560
#	228629
#	229766
#	231242
#	232383
#
# Disc length: 3110 seconds
#
# Revision: 1
# Processed by: cddbd v1.5.2PL0 Copyright (c) Steve Scherf et al.
# Submitted via: audiograbber 1.83.01
#
DISCID=330c2415
DTITLE=Various Artist - CDX 510
DYEAR=2010
DGENRE=Country
TTITLE0=Toby Keith - Bullets In The Gun
TTITLE1=Sheryl Crow and Miranda Lambert - Coal Miners Daughter
TTITLE2=Tim McGraw - Felt Good On My Lips
TTITLE3=Billy Currington - Let Me Down Easy
TTITLE4=Craig Morgan - Still A Little Chicken Left On That Bone
TTITLE5=Vince Hatfield - Beth
TTITLE6=Matt Stillwell - Drunk Enough
TTITLE7=Tobi Gordon - Grandma's Love Recipe
TTITLE8=Jimmy White - Kady Did
TTITLE9=JB and The Moonshine Band - Perfect Girl
TTITLE10=Jimmie Vanzant - Too Much Town Not Enough Ground
TTITLE11=Daniel Smith - Until I Close My Eyes For Good
TTITLE12=Mel Tillis - Sylvester
TTITLE13=Mel Tillis - Might Be My Son
TTITLE14=Mel Tillis - Am I Driving
TTITLE15=Luke Bryan - CMA Award Liner
TTITLE16=Luke Bryan - CMA Award Liner
TTITLE17=Luke Bryan - CMA Award Liner
TTITLE18=Bellamy Brothers - CMA Award Liner
TTITLE19=Bellamy Brothers - CMA Award Liner
TTITLE20=Bellamy Brothers - CMA Award Liner
EXTD=
EXTT0=
EXTT1=
EXTT2=
EXTT3=
EXTT4=
EXTT5=
EXTT6=
EXTT7=
EXTT8=
EXTT9=
EXTT10=
EXTT11=
EXTT12=
EXTT13=
EXTT14=
EXTT15=
EXTT16=
EXTT17=
EXTT18=
EXTT19=
EXTT20=
PLAYORDER=
